STARTFONT 2.1
FONT -Monotype-Century Schoolbook-Regular-R-Normal--18-180-75-75-P-93-iso8859-4
SIZE 18 75 75
FONTBOUNDINGBOX 22 22 -3 -4

STARTPROPERTIES 24
FOUNDRY "Monotype"
FAMILY_NAME "Century Schoolbook"
WEIGHT_NAME "Regular"
SLANT "R"
SETWIDTH_NAME "Normal"
ADD_STYLE_NAME ""
PIXEL_SIZE 18
POINT_SIZE 180
RESOLUTION_X 75
RESOLUTION_Y 75
SPACING "P"
AVERAGE_WIDTH 93
CHARSET_REGISTRY "iso8859"
CHARSET_ENCODING "4"
FACE_NAME "Century Schoolbook ISO Latin4"
_DEC_DEVICE_FONTNAMES "PS=centuryschoolbook-lat4"
COPYRIGHT "Copyright (c) 1994 Monotype Typography Ltd."
CAP_HEIGHT 16
X_HEIGHT 10
WEIGHT 10
QUAD_WIDTH 11
DEFAULT_CHAR 160
FONT_DESCENT 4
FONT_ASCENT 19
ENDPROPERTIES

CHARS 191

STARTCHAR space
ENCODING 32
SWIDTH 278 0
DWIDTH 5 0
BBX 0 0 0 0
BITMAP
ENDCHAR

STARTCHAR exclam
ENCODING 33
SWIDTH 296 0
DWIDTH 6 0
BBX 2 14 2 0
BITMAP
C0
C0
C0
C0
C0
C0
C0
40
40
40
00
00
C0
C0
ENDCHAR

STARTCHAR quotedbl
ENCODING 34
SWIDTH 389 0
DWIDTH 7 0
BBX 5 5 1 9
BITMAP
D8
D8
D8
48
48
ENDCHAR

STARTCHAR numbersign
ENCODING 35
SWIDTH 556 0
DWIDTH 11 0
BBX 10 14 0 0
BITMAP
1080
1080
1080
1080
7FC0
2100
2100
2100
2100
FF80
4200
4200
4200
4200
ENDCHAR

STARTCHAR dollar
ENCODING 36
SWIDTH 556 0
DWIDTH 11 0
BBX 8 18 1 -3
BITMAP
08
3E
49
CB
CA
C8
E8
78
3E
0F
0F
4B
CB
8A
7C
08
08
08
ENDCHAR

STARTCHAR percent
ENCODING 37
SWIDTH 833 0
DWIDTH 16 0
BBX 13 14 1 0
BITMAP
7020
D820
8840
8880
8880
8900
DA70
72D8
0488
0888
0888
1088
20D8
2070
ENDCHAR

STARTCHAR ampersand
ENCODING 38
SWIDTH 815 0
DWIDTH 15 0
BBX 13 14 1 0
BITMAP
0E00
1300
3300
3300
3200
1C00
38F0
4C60
C640
C640
C380
E188
72D0
3C60
ENDCHAR

STARTCHAR quoteright
ENCODING 39
SWIDTH 204 0
DWIDTH 4 0
BBX 2 5 1 9
BITMAP
C0
C0
40
40
80
ENDCHAR

STARTCHAR parenleft
ENCODING 40
SWIDTH 333 0
DWIDTH 6 0
BBX 5 18 1 -4
BITMAP
08
10
20
20
60
40
C0
C0
C0
C0
C0
C0
40
60
20
20
10
08
ENDCHAR

STARTCHAR parenright
ENCODING 41
SWIDTH 333 0
DWIDTH 6 0
BBX 5 18 0 -4
BITMAP
80
40
20
20
30
10
18
18
18
18
18
18
10
30
20
20
40
80
ENDCHAR

STARTCHAR asterisk
ENCODING 42
SWIDTH 500 0
DWIDTH 10 0
BBX 8 7 1 7
BITMAP
18
18
CB
FF
18
3C
66
ENDCHAR

STARTCHAR plus
ENCODING 43
SWIDTH 606 0
DWIDTH 12 0
BBX 11 11 0 1
BITMAP
0400
0400
0400
0400
0400
FFE0
0400
0400
0400
0400
0400
ENDCHAR

STARTCHAR comma
ENCODING 44
SWIDTH 278 0
DWIDTH 5 0
BBX 2 5 1 -3
BITMAP
C0
C0
40
40
80
ENDCHAR

STARTCHAR minus
ENCODING 45
SWIDTH 606 0
DWIDTH 12 0
BBX 10 1 1 6
BITMAP
FFC0
ENDCHAR

STARTCHAR period
ENCODING 46
SWIDTH 278 0
DWIDTH 5 0
BBX 2 2 2 0
BITMAP
C0
C0
ENDCHAR

STARTCHAR slash
ENCODING 47
SWIDTH 278 0
DWIDTH 5 0
BBX 5 14 0 0
BITMAP
08
08
18
10
10
30
20
20
60
40
40
C0
80
80
ENDCHAR

STARTCHAR zero
ENCODING 48
SWIDTH 556 0
DWIDTH 11 0
BBX 9 14 1 0
BITMAP
1C00
2200
6300
4100
C180
C180
C180
C180
C180
C180
4100
6300
2200
1C00
ENDCHAR

STARTCHAR one
ENCODING 49
SWIDTH 556 0
DWIDTH 11 0
BBX 6 14 3 0
BITMAP
10
F0
30
30
30
30
30
30
30
30
30
30
30
FC
ENDCHAR

STARTCHAR two
ENCODING 50
SWIDTH 556 0
DWIDTH 11 0
BBX 8 14 1 0
BITMAP
3C
46
C3
43
03
03
06
06
0C
18
21
41
FF
FF
ENDCHAR

STARTCHAR three
ENCODING 51
SWIDTH 556 0
DWIDTH 11 0
BBX 9 14 1 0
BITMAP
3F00
4380
E180
4180
0180
0300
0E00
0300
0180
0180
4180
E180
4300
3E00
ENDCHAR

STARTCHAR four
ENCODING 52
SWIDTH 556 0
DWIDTH 11 0
BBX 9 14 1 0
BITMAP
0200
0600
0E00
0E00
1600
2600
2600
4600
4600
8600
FF80
0600
0600
1F80
ENDCHAR

STARTCHAR five
ENCODING 53
SWIDTH 556 0
DWIDTH 11 0
BBX 9 14 1 0
BITMAP
7F00
7C00
4000
4000
4000
5E00
E300
8180
0180
4180
E180
8180
4300
3E00
ENDCHAR

STARTCHAR six
ENCODING 54
SWIDTH 556 0
DWIDTH 11 0
BBX 9 14 1 0
BITMAP
1E00
2300
6700
C200
C000
DE00
E300
C180
C180
C180
C180
C180
6300
3E00
ENDCHAR

STARTCHAR seven
ENCODING 55
SWIDTH 556 0
DWIDTH 11 0
BBX 10 14 1 0
BITMAP
7FC0
7FC0
C0C0
8180
0300
0300
0600
0600
0C00
0C00
1800
1800
1800
1800
ENDCHAR

STARTCHAR eight
ENCODING 56
SWIDTH 556 0
DWIDTH 11 0
BBX 9 14 1 0
BITMAP
1C00
2200
6300
6100
7300
3A00
1C00
2E00
4700
C380
8180
C180
4100
3E00
ENDCHAR

STARTCHAR nine
ENCODING 57
SWIDTH 556 0
DWIDTH 11 0
BBX 9 14 1 0
BITMAP
3E00
6300
C180
C180
C180
C180
C180
6380
3D80
0180
4180
E300
4200
3C00
ENDCHAR

STARTCHAR colon
ENCODING 58
SWIDTH 278 0
DWIDTH 5 0
BBX 2 9 2 0
BITMAP
C0
C0
00
00
00
00
00
C0
C0
ENDCHAR

STARTCHAR semicolon
ENCODING 59
SWIDTH 278 0
DWIDTH 5 0
BBX 2 12 1 -3
BITMAP
C0
C0
00
00
00
00
00
C0
C0
40
40
80
ENDCHAR

STARTCHAR less
ENCODING 60
SWIDTH 606 0
DWIDTH 12 0
BBX 10 9 1 2
BITMAP
00C0
0380
0E00
3800
E000
3800
0E00
0380
00C0
ENDCHAR

STARTCHAR equal
ENCODING 61
SWIDTH 606 0
DWIDTH 12 0
BBX 10 5 1 4
BITMAP
FFC0
0000
0000
0000
FFC0
ENDCHAR

STARTCHAR greater
ENCODING 62
SWIDTH 606 0
DWIDTH 12 0
BBX 10 9 1 2
BITMAP
C000
7000
1C00
0700
01C0
0700
1C00
7000
C000
ENDCHAR

STARTCHAR question
ENCODING 63
SWIDTH 444 0
DWIDTH 8 0
BBX 7 14 1 0
BITMAP
38
44
C6
46
06
0C
08
10
10
10
00
00
30
30
ENDCHAR

STARTCHAR at
ENCODING 64
SWIDTH 737 0
DWIDTH 14 0
BBX 13 15 0 -1
BITMAP
07C0
1820
2010
4348
44C8
8888
9988
9988
9910
9B20
4DC8
4008
2010
1860
0780
ENDCHAR

STARTCHAR A
ENCODING 65
SWIDTH 722 0
DWIDTH 14 0
BBX 14 14 0 0
BITMAP
0100
0100
0380
0380
0580
04C0
08C0
08C0
1FE0
1060
2060
2030
6030
F8FC
ENDCHAR

STARTCHAR B
ENCODING 66
SWIDTH 722 0
DWIDTH 14 0
BBX 12 14 1 0
BITMAP
FF80
30C0
3060
3060
3060
30C0
3F80
3060
3030
3030
3030
3030
3060
FFC0
ENDCHAR

STARTCHAR C
ENCODING 67
SWIDTH 722 0
DWIDTH 14 0
BBX 12 14 1 0
BITMAP
0F90
3070
6030
6010
C010
C000
C000
C000
C000
C000
6010
6010
3020
0FC0
ENDCHAR

STARTCHAR D
ENCODING 68
SWIDTH 778 0
DWIDTH 15 0
BBX 13 14 1 0
BITMAP
FF80
3060
3030
3030
3018
3018
3018
3018
3018
3018
3030
3030
3060
FF80
ENDCHAR

STARTCHAR E
ENCODING 69
SWIDTH 722 0
DWIDTH 14 0
BBX 11 14 1 0
BITMAP
FFE0
3060
3020
3120
3120
3300
3F00
3300
3100
3120
3020
3020
3060
FFE0
ENDCHAR

STARTCHAR F
ENCODING 70
SWIDTH 667 0
DWIDTH 13 0
BBX 11 14 1 0
BITMAP
FFE0
3060
3020
3120
3120
3300
3F00
3300
3100
3100
3000
3000
3000
FC00
ENDCHAR

STARTCHAR G
ENCODING 71
SWIDTH 778 0
DWIDTH 15 0
BBX 14 14 1 0
BITMAP
0F90
3070
6030
6010
C010
C000
C000
C0FC
C030
C030
6030
6030
3050
0F90
ENDCHAR

STARTCHAR H
ENCODING 72
SWIDTH 833 0
DWIDTH 16 0
BBX 14 14 1 0
BITMAP
FCFC
3030
3030
3030
3030
3030
3FF0
3030
3030
3030
3030
3030
3030
FCFC
ENDCHAR

STARTCHAR I
ENCODING 73
SWIDTH 407 0
DWIDTH 8 0
BBX 6 14 1 0
BITMAP
FC
30
30
30
30
30
30
30
30
30
30
30
30
FC
ENDCHAR

STARTCHAR J
ENCODING 74
SWIDTH 556 0
DWIDTH 11 0
BBX 10 14 0 0
BITMAP
0FC0
0300
0300
0300
0300
0300
0300
0300
0300
6300
C300
8300
4600
3C00
ENDCHAR

STARTCHAR K
ENCODING 75
SWIDTH 778 0
DWIDTH 15 0
BBX 14 14 1 0
BITMAP
FCF8
3020
3040
3080
3100
3200
3700
3B80
3180
30C0
30E0
3060
3070
FDFC
ENDCHAR

STARTCHAR L
ENCODING 76
SWIDTH 667 0
DWIDTH 13 0
BBX 11 14 1 0
BITMAP
FC00
3000
3000
3000
3000
3000
3000
3000
3000
3020
3020
3020
3060
FFE0
ENDCHAR

STARTCHAR M
ENCODING 77
SWIDTH 944 0
DWIDTH 19 0
BBX 17 14 1 0
BITMAP
F00F80
300E00
380E00
381600
381600
2C1600
2C2600
262600
264600
234600
23C600
218600
218600
F89F80
ENDCHAR

STARTCHAR N
ENCODING 78
SWIDTH 815 0
DWIDTH 15 0
BBX 14 14 1 0
BITMAP
E07C
3010
3810
3810
2C10
2610
2310
2310
2190
20D0
20D0
2070
2030
F810
ENDCHAR

STARTCHAR O
ENCODING 79
SWIDTH 778 0
DWIDTH 15 0
BBX 13 14 1 0
BITMAP
0F80
3060
6030
6030
C018
C018
C018
C018
C018
C018
6030
6030
3060
0F80
ENDCHAR

STARTCHAR P
ENCODING 80
SWIDTH 667 0
DWIDTH 13 0
BBX 11 14 1 0
BITMAP
FF80
30C0
3060
3060
3060
3060
30C0
3F80
3000
3000
3000
3000
3000
FC00
ENDCHAR

STARTCHAR Q
ENCODING 81
SWIDTH 778 0
DWIDTH 15 0
BBX 13 18 1 -4
BITMAP
0F80
3060
6030
6030
C018
C018
C018
C018
C018
CF18
70B0
7070
3060
0FE0
0060
0068
0068
0030
ENDCHAR

STARTCHAR R
ENCODING 82
SWIDTH 722 0
DWIDTH 14 0
BBX 13 14 1 0
BITMAP
FFC0
30E0
3060
3060
3060
30C0
3F80
3300
3180
3180
30C0
30C8
30C8
FC70
ENDCHAR

STARTCHAR S
ENCODING 83
SWIDTH 630 0
DWIDTH 12 0
BBX 10 14 1 0
BITMAP
3C80
6380
C180
C080
C080
F000
7E00
1F80
03C0
80C0
80C0
C0C0
E180
9F00
ENDCHAR

STARTCHAR T
ENCODING 84
SWIDTH 667 0
DWIDTH 14 0
BBX 12 14 1 0
BITMAP
7FE0
C630
8610
8610
8610
0600
0600
0600
0600
0600
0600
0600
0600
0F00
ENDCHAR

STARTCHAR U
ENCODING 85
SWIDTH 815 0
DWIDTH 15 0
BBX 14 14 1 0
BITMAP
FC7C
3010
3010
3010
3010
3010
3010
3010
3010
3010
3010
3010
1820
0FC0
ENDCHAR

STARTCHAR V
ENCODING 86
SWIDTH 722 0
DWIDTH 14 0
BBX 14 14 0 0
BITMAP
FC7C
3010
3010
1820
1820
1820
0C40
0C40
0680
0680
0680
0300
0300
0100
ENDCHAR

STARTCHAR W
ENCODING 87
SWIDTH 981 0
DWIDTH 19 0
BBX 19 14 0 0
BITMAP
FDF3E0
30C080
30C080
306100
18E100
18A100
18B200
0D3200
0D1A00
0D1A00
060C00
060C00
060C00
020400
ENDCHAR

STARTCHAR X
ENCODING 88
SWIDTH 704 0
DWIDTH 13 0
BBX 13 14 0 0
BITMAP
FDF8
3060
1840
18C0
0C80
0700
0700
0300
0580
08C0
08C0
1060
3030
FCF8
ENDCHAR

STARTCHAR Y
ENCODING 89
SWIDTH 704 0
DWIDTH 13 0
BBX 13 14 0 0
BITMAP
FCF8
3020
1820
1840
0C40
0680
0680
0300
0300
0300
0300
0300
0300
0FC0
ENDCHAR

STARTCHAR Z
ENCODING 90
SWIDTH 611 0
DWIDTH 12 0
BBX 10 14 1 0
BITMAP
FFC0
C180
8180
8300
8600
0600
0C00
1800
1800
3040
6040
6040
C0C0
FFC0
ENDCHAR

STARTCHAR bracketleft
ENCODING 91
SWIDTH 333 0
DWIDTH 6 0
BBX 4 18 2 -4
BITMAP
F0
C0
C0
C0
C0
C0
C0
C0
C0
C0
C0
C0
C0
C0
C0
C0
C0
F0
ENDCHAR

STARTCHAR backslash
ENCODING 92
SWIDTH 606 0
DWIDTH 12 0
BBX 11 14 0 0
BITMAP
8000
4000
6000
3000
1000
0800
0C00
0600
0200
0100
0180
00C0
0040
0020
ENDCHAR

STARTCHAR bracketright
ENCODING 93
SWIDTH 333 0
DWIDTH 6 0
BBX 4 18 0 -4
BITMAP
F0
30
30
30
30
30
30
30
30
30
30
30
30
30
30
30
30
F0
ENDCHAR

STARTCHAR asciicircum
ENCODING 94
SWIDTH 606 0
DWIDTH 12 0
BBX 7 7 2 7
BITMAP
10
38
28
6C
44
82
82
ENDCHAR

STARTCHAR underscore
ENCODING 95
SWIDTH 500 0
DWIDTH 10 0
BBX 10 1 0 -2
BITMAP
FFC0
ENDCHAR

STARTCHAR quoteleft
ENCODING 96
SWIDTH 204 0
DWIDTH 4 0
BBX 2 5 1 9
BITMAP
40
80
80
C0
C0
ENDCHAR

STARTCHAR a
ENCODING 97
SWIDTH 556 0
DWIDTH 11 0
BBX 10 9 1 0
BITMAP
7E00
C300
8300
1F00
7300
C300
C300
C700
79C0
ENDCHAR

STARTCHAR b
ENCODING 98
SWIDTH 556 0
DWIDTH 11 0
BBX 10 14 0 0
BITMAP
F000
3000
3000
3000
3000
3700
3980
30C0
30C0
30C0
30C0
30C0
3980
2700
ENDCHAR

STARTCHAR c
ENCODING 99
SWIDTH 444 0
DWIDTH 9 0
BBX 7 9 1 0
BITMAP
3C
46
C2
C0
C0
C0
C2
42
3C
ENDCHAR

STARTCHAR d
ENCODING 100
SWIDTH 574 0
DWIDTH 11 0
BBX 10 14 1 0
BITMAP
0F00
0300
0300
0300
0300
3B00
4700
C300
C300
C300
C300
C300
4700
3BC0
ENDCHAR

STARTCHAR e
ENCODING 101
SWIDTH 500 0
DWIDTH 10 0
BBX 8 9 1 0
BITMAP
3C
42
C3
C3
FF
C0
C1
62
3C
ENDCHAR

STARTCHAR f
ENCODING 102
SWIDTH 333 0
DWIDTH 6 0
BBX 8 14 0 0
BITMAP
0E
13
31
30
30
FC
30
30
30
30
30
30
30
FC
ENDCHAR

STARTCHAR g
ENCODING 103
SWIDTH 537 0
DWIDTH 10 0
BBX 9 13 1 -4
BITMAP
3980
4500
C600
C600
C400
7800
C000
8000
7E00
C300
C300
C300
7E00
ENDCHAR

STARTCHAR h
ENCODING 104
SWIDTH 611 0
DWIDTH 12 0
BBX 12 14 0 0
BITMAP
F000
3000
3000
3000
3000
3700
3880
30C0
30C0
30C0
30C0
30C0
30C0
FDF0
ENDCHAR

STARTCHAR i
ENCODING 105
SWIDTH 315 0
DWIDTH 6 0
BBX 6 14 0 0
BITMAP
30
30
00
00
00
F0
30
30
30
30
30
30
30
FC
ENDCHAR

STARTCHAR j
ENCODING 106
SWIDTH 296 0
DWIDTH 6 0
BBX 5 18 -1 -4
BITMAP
18
18
00
00
00
78
18
18
18
18
18
18
18
18
18
98
D0
60
ENDCHAR

STARTCHAR k
ENCODING 107
SWIDTH 593 0
DWIDTH 11 0
BBX 11 14 0 0
BITMAP
F000
3000
3000
3000
3000
33C0
3100
3200
3400
3E00
3300
3180
30C0
FDE0
ENDCHAR

STARTCHAR l
ENCODING 108
SWIDTH 315 0
DWIDTH 6 0
BBX 6 14 0 0
BITMAP
F0
30
30
30
30
30
30
30
30
30
30
30
30
FC
ENDCHAR

STARTCHAR m
ENCODING 109
SWIDTH 889 0
DWIDTH 16 0
BBX 16 9 0 0
BITMAP
F778
398C
318C
318C
318C
318C
318C
318C
FBDF
ENDCHAR

STARTCHAR n
ENCODING 110
SWIDTH 611 0
DWIDTH 12 0
BBX 12 9 0 0
BITMAP
F780
38C0
30C0
30C0
30C0
30C0
30C0
30C0
FDF0
ENDCHAR

STARTCHAR o
ENCODING 111
SWIDTH 500 0
DWIDTH 10 0
BBX 8 9 1 0
BITMAP
3C
66
C3
C3
C3
C3
C3
66
3C
ENDCHAR

STARTCHAR p
ENCODING 112
SWIDTH 574 0
DWIDTH 11 0
BBX 10 13 0 -4
BITMAP
F700
3880
30C0
30C0
30C0
30C0
30C0
3880
3700
3000
3000
3000
FC00
ENDCHAR

STARTCHAR q
ENCODING 113
SWIDTH 556 0
DWIDTH 11 0
BBX 10 13 1 -4
BITMAP
3900
4700
C300
C300
C300
C300
C300
4700
3B00
0300
0300
0300
0FC0
ENDCHAR

STARTCHAR r
ENCODING 114
SWIDTH 444 0
DWIDTH 8 0
BBX 8 9 0 0
BITMAP
F6
3B
32
30
30
30
30
30
FC
ENDCHAR

STARTCHAR s
ENCODING 115
SWIDTH 463 0
DWIDTH 9 0
BBX 7 9 1 0
BITMAP
7A
C6
C2
E0
78
1C
86
C6
BC
ENDCHAR

STARTCHAR t
ENCODING 116
SWIDTH 389 0
DWIDTH 7 0
BBX 6 13 1 0
BITMAP
20
20
60
60
F8
60
60
60
60
60
64
64
38
ENDCHAR

STARTCHAR u
ENCODING 117
SWIDTH 611 0
DWIDTH 12 0
BBX 12 9 0 0
BITMAP
F3C0
30C0
30C0
30C0
30C0
30C0
30C0
31C0
1EF0
ENDCHAR

STARTCHAR v
ENCODING 118
SWIDTH 537 0
DWIDTH 10 0
BBX 10 9 0 0
BITMAP
F7C0
6100
6100
3200
3200
1C00
1C00
0800
0800
ENDCHAR

STARTCHAR w
ENCODING 119
SWIDTH 778 0
DWIDTH 15 0
BBX 15 9 0 0
BITMAP
FBDE
6184
6184
32C8
32C8
1C70
1C70
0820
0820
ENDCHAR

STARTCHAR x
ENCODING 120
SWIDTH 537 0
DWIDTH 10 0
BBX 10 9 0 0
BITMAP
F3C0
6100
3200
1C00
0C00
1600
2300
4180
F3C0
ENDCHAR

STARTCHAR y
ENCODING 121
SWIDTH 537 0
DWIDTH 10 0
BBX 10 13 0 -4
BITMAP
FBC0
6080
6080
3100
3100
1A00
1A00
0C00
0C00
0800
4800
D000
6000
ENDCHAR

STARTCHAR z
ENCODING 122
SWIDTH 481 0
DWIDTH 9 0
BBX 7 9 1 0
BITMAP
FE
C6
8C
98
18
32
62
C6
FE
ENDCHAR

STARTCHAR braceleft
ENCODING 123
SWIDTH 333 0
DWIDTH 6 0
BBX 5 18 1 -4
BITMAP
08
10
20
60
60
60
60
40
80
40
60
60
60
60
60
20
10
08
ENDCHAR

STARTCHAR bar
ENCODING 124
SWIDTH 606 0
DWIDTH 12 0
BBX 2 18 5 -4
BITMAP
80
C0
C0
C0
C0
C0
C0
C0
C0
C0
C0
C0
C0
C0
C0
C0
C0
C0
ENDCHAR

STARTCHAR braceright
ENCODING 125
SWIDTH 333 0
DWIDTH 6 0
BBX 5 18 0 -4
BITMAP
80
40
20
30
30
30
30
10
08
10
30
30
30
30
30
20
40
80
ENDCHAR

STARTCHAR asciitilde
ENCODING 126
SWIDTH 606 0
DWIDTH 12 0
BBX 10 3 1 5
BITMAP
7040
9CC0
8780
ENDCHAR

STARTCHAR space
ENCODING 160
SWIDTH 278 0
DWIDTH 6 0
BBX 0 0 0 0
BITMAP
ENDCHAR

STARTCHAR Aogonek
ENCODING 161
SWIDTH 722 0
DWIDTH 14 0
BBX 14 16 0 -2
BITMAP
0100
0100
0380
0380
0580
04C0
08C0
08C0
1FE0
1060
2060
2030
6030
F8FC
0030
001C
ENDCHAR

STARTCHAR afii240
ENCODING 162
SWIDTH 500 0
DWIDTH 10 0
BBX 9 9 0 0
BITMAP
F780
6200
6400
7800
7800
6C00
6600
6300
F780
ENDCHAR

STARTCHAR Rcommaaccent
ENCODING 163
SWIDTH 722 0
DWIDTH 14 0
BBX 13 18 1 -4
BITMAP
FFC0
30E0
3060
3060
3060
30C0
3F80
3300
3180
3180
30C0
30C8
30C8
FC70
0000
0600
0600
0C00
ENDCHAR

STARTCHAR currency
ENCODING 164
SWIDTH 606 0
DWIDTH 12 0
BBX 8 8 2 2
BITMAP
BD
66
C3
81
81
C3
66
BD
ENDCHAR

STARTCHAR Itilde
ENCODING 165
SWIDTH 407 0
DWIDTH 8 0
BBX 6 17 1 0
BITMAP
34
58
00
FC
30
30
30
30
30
30
30
30
30
30
30
30
FC
ENDCHAR

STARTCHAR Lcommaaccent
ENCODING 166
SWIDTH 667 0
DWIDTH 13 0
BBX 11 18 1 -4
BITMAP
FC00
3000
3000
3000
3000
3000
3000
3000
3000
3020
3020
3020
3060
FFE0
0000
0C00
0C00
1800
ENDCHAR

STARTCHAR section
ENCODING 167
SWIDTH 500 0
DWIDTH 10 0
BBX 7 18 2 -4
BITMAP
38
6C
6C
60
60
30
58
CC
C6
C6
66
34
18
0C
0C
6C
6C
38
ENDCHAR

STARTCHAR hungarumlaut
ENCODING 168
SWIDTH 333 0
DWIDTH 6 0
BBX 9 2 -1 10
BITMAP
3180
C600
ENDCHAR

STARTCHAR Scaron
ENCODING 169
SWIDTH 630 0
DWIDTH 12 0
BBX 10 18 1 0
BITMAP
1100
0E00
0400
0000
3C80
6380
C180
C080
C080
F000
7E00
1F80
03C0
80C0
80C0
C0C0
E180
9F00
ENDCHAR

STARTCHAR Emacron
ENCODING 170
SWIDTH 722 0
DWIDTH 14 0
BBX 11 16 1 0
BITMAP
1F80
0000
FFE0
3060
3020
3120
3120
3300
3F00
3300
3100
3120
3020
3020
3060
FFE0
ENDCHAR

STARTCHAR Gcommaaccent
ENCODING 171
SWIDTH 778 0
DWIDTH 15 0
BBX 14 18 1 -4
BITMAP
0F90
3070
6030
6010
C010
C000
C000
C0FC
C030
C030
6030
6030
3050
0F90
0000
0600
0600
0C00
ENDCHAR

STARTCHAR afii237
ENCODING 172
SWIDTH 611 0
DWIDTH 14 0
BBX 12 14 1 0
BITMAP
7FE0
C630
8610
8610
8610
0600
0600
7FE0
0600
0600
0600
0600
0600
0F00
ENDCHAR

STARTCHAR hyphen
ENCODING 173
SWIDTH 333 0
DWIDTH 6 0
BBX 4 1 1 4
BITMAP
F0
ENDCHAR

STARTCHAR Zcaron
ENCODING 174
SWIDTH 611 0
DWIDTH 12 0
BBX 10 18 1 0
BITMAP
2200
1C00
0800
0000
FFC0
C180
8180
8300
8600
0600
0C00
1800
1800
3040
6040
6040
C0C0
FFC0
ENDCHAR

STARTCHAR macron
ENCODING 175
SWIDTH 333 0
DWIDTH 6 0
BBX 6 1 0 10
BITMAP
FC
ENDCHAR

STARTCHAR degree
ENCODING 176
SWIDTH 400 0
DWIDTH 8 0
BBX 6 6 1 8
BITMAP
78
CC
84
84
CC
78
ENDCHAR

STARTCHAR aogonek
ENCODING 177
SWIDTH 556 0
DWIDTH 11 0
BBX 11 11 1 -2
BITMAP
7E00
C300
8300
1F00
7300
C300
C300
C700
79C0
0180
00E0
ENDCHAR

STARTCHAR ogonek
ENCODING 178
SWIDTH 333 0
DWIDTH 6 0
BBX 4 2 1 -2
BITMAP
C0
70
ENDCHAR

STARTCHAR rcommaaccent
ENCODING 179
SWIDTH 444 0
DWIDTH 8 0
BBX 8 13 0 -4
BITMAP
F6
3B
32
30
30
30
30
30
FC
00
30
30
60
ENDCHAR

STARTCHAR acute
ENCODING 180
SWIDTH 333 0
DWIDTH 6 0
BBX 4 2 1 10
BITMAP
30
C0
ENDCHAR

STARTCHAR itilde
ENCODING 181
SWIDTH 315 0
DWIDTH 6 0
BBX 6 12 0 0
BITMAP
34
58
00
F0
30
30
30
30
30
30
30
FC
ENDCHAR

STARTCHAR lcommaaccent
ENCODING 182
SWIDTH 315 0
DWIDTH 6 0
BBX 6 18 0 -4
BITMAP
F0
30
30
30
30
30
30
30
30
30
30
30
30
FC
00
30
30
60
ENDCHAR

STARTCHAR caron
ENCODING 183
SWIDTH 333 0
DWIDTH 6 0
BBX 5 3 0 10
BITMAP
88
70
20
ENDCHAR

STARTCHAR commaaccent
ENCODING 184
SWIDTH 333 0
DWIDTH 6 0
BBX 3 3 1 -4
BITMAP
60
60
C0
ENDCHAR

STARTCHAR scaron
ENCODING 185
SWIDTH 463 0
DWIDTH 9 0
BBX 7 13 1 0
BITMAP
44
38
10
00
7A
C6
C2
E0
78
1C
86
C6
BC
ENDCHAR

STARTCHAR emacron
ENCODING 186
SWIDTH 500 0
DWIDTH 10 0
BBX 8 11 1 0
BITMAP
7E
00
3C
42
C3
C3
FF
C0
C1
62
3C
ENDCHAR

STARTCHAR gcommaaccent
ENCODING 187
SWIDTH 537 0
DWIDTH 10 0
BBX 9 17 1 -4
BITMAP
0800
1000
1800
0000
3980
4500
C600
C600
C400
7800
C000
8000
7E00
C300
C300
C300
7E00
ENDCHAR

STARTCHAR afii253
ENCODING 188
SWIDTH 278 0
DWIDTH 7 0
BBX 6 13 1 0
BITMAP
20
20
60
60
F8
60
60
F8
60
60
64
64
38
ENDCHAR

STARTCHAR afii238
ENCODING 189
SWIDTH 728 0
DWIDTH 14 0
BBX 13 14 0 0
BITMAP
F3E0
3470
3838
3018
3018
3018
3018
3018
3018
3018
3018
3198
31B0
FCE0
ENDCHAR

STARTCHAR zcaron
ENCODING 190
SWIDTH 481 0
DWIDTH 9 0
BBX 7 13 1 0
BITMAP
44
38
10
00
FE
C6
8C
98
18
32
62
C6
FE
ENDCHAR

STARTCHAR afii254
ENCODING 191
SWIDTH 512 0
DWIDTH 10 0
BBX 10 13 0 -4
BITMAP
3700
F980
30C0
30C0
30C0
30C0
30C0
30C0
F8C0
00C0
0980
0D80
0700
ENDCHAR

STARTCHAR Amacron
ENCODING 192
SWIDTH 722 0
DWIDTH 14 0
BBX 14 16 0 0
BITMAP
07E0
0000
0100
0100
0380
0380
0580
04C0
08C0
08C0
1FE0
1060
2060
2030
6030
F8FC
ENDCHAR

STARTCHAR Aacute
ENCODING 193
SWIDTH 722 0
DWIDTH 14 0
BBX 14 17 0 0
BITMAP
00C0
0300
0000
0100
0100
0380
0380
0580
04C0
08C0
08C0
1FE0
1060
2060
2030
6030
F8FC
ENDCHAR

STARTCHAR Acircumflex
ENCODING 194
SWIDTH 722 0
DWIDTH 14 0
BBX 14 18 0 0
BITMAP
0100
0380
0440
0000
0100
0100
0380
0380
0580
04C0
08C0
08C0
1FE0
1060
2060
2030
6030
F8FC
ENDCHAR

STARTCHAR Atilde
ENCODING 195
SWIDTH 722 0
DWIDTH 14 0
BBX 14 17 0 0
BITMAP
0340
0580
0000
0100
0100
0380
0380
0580
04C0
08C0
08C0
1FE0
1060
2060
2030
6030
F8FC
ENDCHAR

STARTCHAR Adieresis
ENCODING 196
SWIDTH 722 0
DWIDTH 14 0
BBX 14 17 0 0
BITMAP
0660
0660
0000
0100
0100
0380
0380
0580
04C0
08C0
08C0
1FE0
1060
2060
2030
6030
F8FC
ENDCHAR

STARTCHAR Aring
ENCODING 197
SWIDTH 722 0
DWIDTH 14 0
BBX 14 18 0 0
BITMAP
0180
0240
0180
0000
0100
0100
0380
0380
0580
04C0
08C0
08C0
1FE0
1060
2060
2030
6030
F8FC
ENDCHAR

STARTCHAR AE
ENCODING 198
SWIDTH 1000 0
DWIDTH 19 0
BBX 19 14 0 0
BITMAP
03FFE0
00F060
00B020
013120
023120
023300
043F00
043300
0FF100
083120
103020
103020
303060
FCFFE0
ENDCHAR

STARTCHAR Iogonek
ENCODING 199
SWIDTH 407 0
DWIDTH 8 0
BBX 6 16 1 -2
BITMAP
FC
30
30
30
30
30
30
30
30
30
30
30
30
FC
30
1C
ENDCHAR

STARTCHAR Ccaron
ENCODING 200
SWIDTH 722 0
DWIDTH 14 0
BBX 12 18 1 0
BITMAP
0880
0700
0200
0000
0F90
3070
6030
6010
C010
C000
C000
C000
C000
C000
6010
6010
3020
0FC0
ENDCHAR

STARTCHAR Eacute
ENCODING 201
SWIDTH 722 0
DWIDTH 14 0
BBX 11 17 1 0
BITMAP
0300
0C00
0000
FFE0
3060
3020
3120
3120
3300
3F00
3300
3100
3120
3020
3020
3060
FFE0
ENDCHAR

STARTCHAR Eogonek
ENCODING 202
SWIDTH 722 0
DWIDTH 14 0
BBX 11 16 1 -2
BITMAP
FFE0
3060
3020
3120
3120
3300
3F00
3300
3100
3120
3020
3020
3060
FFE0
0180
00E0
ENDCHAR

STARTCHAR Edieresis
ENCODING 203
SWIDTH 722 0
DWIDTH 14 0
BBX 11 17 1 0
BITMAP
1980
1980
0000
FFE0
3060
3020
3120
3120
3300
3F00
3300
3100
3120
3020
3020
3060
FFE0
ENDCHAR

STARTCHAR Edotaccent
ENCODING 204
SWIDTH 722 0
DWIDTH 14 0
BBX 11 17 1 0
BITMAP
0600
0600
0000
FFE0
3060
3020
3120
3120
3300
3F00
3300
3100
3120
3020
3020
3060
FFE0
ENDCHAR

STARTCHAR Iacute
ENCODING 205
SWIDTH 407 0
DWIDTH 8 0
BBX 6 17 1 0
BITMAP
0C
30
00
FC
30
30
30
30
30
30
30
30
30
30
30
30
FC
ENDCHAR

STARTCHAR Icircumflex
ENCODING 206
SWIDTH 407 0
DWIDTH 8 0
BBX 6 18 1 0
BITMAP
10
38
44
00
FC
30
30
30
30
30
30
30
30
30
30
30
30
FC
ENDCHAR

STARTCHAR Imacron
ENCODING 207
SWIDTH 407 0
DWIDTH 8 0
BBX 6 16 1 0
BITMAP
FC
00
FC
30
30
30
30
30
30
30
30
30
30
30
30
FC
ENDCHAR

STARTCHAR Eth
ENCODING 208
SWIDTH 778 0
DWIDTH 15 0
BBX 13 14 1 0
BITMAP
FF80
3060
3030
3030
3018
3018
FE18
3018
3018
3018
3030
3030
3060
FF80
ENDCHAR

STARTCHAR Ncommaaccent
ENCODING 209
SWIDTH 815 0
DWIDTH 15 0
BBX 14 18 1 -4
BITMAP
E07C
3010
3810
3810
2C10
2610
2310
2310
2190
20D0
20D0
2070
2030
F810
0000
0300
0300
0600
ENDCHAR

STARTCHAR Omacron
ENCODING 210
SWIDTH 778 0
DWIDTH 15 0
BBX 13 16 1 0
BITMAP
0FC0
0000
0F80
3060
6030
6030
C018
C018
C018
C018
C018
C018
6030
6030
3060
0F80
ENDCHAR

STARTCHAR Kcommaaccent
ENCODING 211
SWIDTH 778 0
DWIDTH 15 0
BBX 14 18 1 -4
BITMAP
FCF8
3020
3040
3080
3100
3200
3700
3B80
3180
30C0
30E0
3060
3070
FDFC
0000
0600
0600
0C00
ENDCHAR

STARTCHAR Ocircumflex
ENCODING 212
SWIDTH 778 0
DWIDTH 15 0
BBX 13 18 1 0
BITMAP
0200
0700
0880
0000
0F80
3060
6030
6030
C018
C018
C018
C018
C018
C018
6030
6030
3060
0F80
ENDCHAR

STARTCHAR Otilde
ENCODING 213
SWIDTH 778 0
DWIDTH 15 0
BBX 13 17 1 0
BITMAP
0680
0B00
0000
0F80
3060
6030
6030
C018
C018
C018
C018
C018
C018
6030
6030
3060
0F80
ENDCHAR

STARTCHAR Odieresis
ENCODING 214
SWIDTH 778 0
DWIDTH 15 0
BBX 13 17 1 0
BITMAP
0CC0
0CC0
0000
0F80
3060
6030
6030
C018
C018
C018
C018
C018
C018
6030
6030
3060
0F80
ENDCHAR

STARTCHAR multiply
ENCODING 215
SWIDTH 606 0
DWIDTH 12 0
BBX 8 9 2 2
BITMAP
81
C3
66
3C
18
3C
66
C3
81
ENDCHAR

STARTCHAR Oslash
ENCODING 216
SWIDTH 778 0
DWIDTH 15 0
BBX 13 14 1 0
BITMAP
0F90
3060
60B0
60B0
C118
C118
C218
C218
C418
C418
6830
6830
3060
4F80
ENDCHAR

STARTCHAR Uogonek
ENCODING 217
SWIDTH 815 0
DWIDTH 15 0
BBX 14 16 1 -2
BITMAP
FC7C
3010
3010
3010
3010
3010
3010
3010
3010
3010
3010
3010
1820
0FC0
0300
01C0
ENDCHAR

STARTCHAR Uacute
ENCODING 218
SWIDTH 815 0
DWIDTH 15 0
BBX 14 17 1 0
BITMAP
0180
0600
0000
FC7C
3010
3010
3010
3010
3010
3010
3010
3010
3010
3010
3010
1820
0FC0
ENDCHAR

STARTCHAR Ucircumflex
ENCODING 219
SWIDTH 815 0
DWIDTH 15 0
BBX 14 18 1 0
BITMAP
0100
0380
0440
0000
FC7C
3010
3010
3010
3010
3010
3010
3010
3010
3010
3010
3010
1820
0FC0
ENDCHAR

STARTCHAR Udieresis
ENCODING 220
SWIDTH 815 0
DWIDTH 15 0
BBX 14 17 1 0
BITMAP
0CC0
0CC0
0000
FC7C
3010
3010
3010
3010
3010
3010
3010
3010
3010
3010
3010
1820
0FC0
ENDCHAR

STARTCHAR Utilde
ENCODING 221
SWIDTH 815 0
DWIDTH 15 0
BBX 14 17 1 0
BITMAP
0340
0580
0000
FC7C
3010
3010
3010
3010
3010
3010
3010
3010
3010
3010
3010
1820
0FC0
ENDCHAR

STARTCHAR Umacron
ENCODING 222
SWIDTH 815 0
DWIDTH 15 0
BBX 14 16 1 0
BITMAP
0FC0
0000
FC7C
3010
3010
3010
3010
3010
3010
3010
3010
3010
3010
3010
1820
0FC0
ENDCHAR

STARTCHAR germandbls
ENCODING 223
SWIDTH 574 0
DWIDTH 11 0
BBX 9 14 1 0
BITMAP
1E00
2100
6180
6180
6100
6600
6300
6180
6180
6180
6180
6D80
6D00
E600
ENDCHAR

STARTCHAR amacron
ENCODING 224
SWIDTH 556 0
DWIDTH 11 0
BBX 10 11 1 0
BITMAP
7E00
0000
7E00
C300
8300
1F00
7300
C300
C300
C700
79C0
ENDCHAR

STARTCHAR aacute
ENCODING 225
SWIDTH 556 0
DWIDTH 11 0
BBX 10 12 1 0
BITMAP
0C00
3000
0000
7E00
C300
8300
1F00
7300
C300
C300
C700
79C0
ENDCHAR

STARTCHAR acircumflex
ENCODING 226
SWIDTH 556 0
DWIDTH 11 0
BBX 10 13 1 0
BITMAP
0800
1C00
2200
0000
7E00
C300
8300
1F00
7300
C300
C300
C700
79C0
ENDCHAR

STARTCHAR atilde
ENCODING 227
SWIDTH 556 0
DWIDTH 11 0
BBX 10 12 1 0
BITMAP
1A00
2C00
0000
7E00
C300
8300
1F00
7300
C300
C300
C700
79C0
ENDCHAR

STARTCHAR adieresis
ENCODING 228
SWIDTH 556 0
DWIDTH 11 0
BBX 10 12 1 0
BITMAP
6600
6600
0000
7E00
C300
8300
1F00
7300
C300
C300
C700
79C0
ENDCHAR

STARTCHAR aring
ENCODING 229
SWIDTH 556 0
DWIDTH 11 0
BBX 10 13 1 0
BITMAP
1800
2400
1800
0000
7E00
C300
8300
1F00
7300
C300
C300
C700
79C0
ENDCHAR

STARTCHAR ae
ENCODING 230
SWIDTH 796 0
DWIDTH 15 0
BBX 14 9 1 0
BITMAP
7CF0
C308
830C
3F0C
63FC
C300
C304
C788
78F0
ENDCHAR

STARTCHAR iogonek
ENCODING 231
SWIDTH 315 0
DWIDTH 6 0
BBX 6 16 0 -2
BITMAP
30
30
00
00
00
F0
30
30
30
30
30
30
30
FC
30
1C
ENDCHAR

STARTCHAR ccaron
ENCODING 232
SWIDTH 444 0
DWIDTH 9 0
BBX 7 13 1 0
BITMAP
44
38
10
00
3C
46
C2
C0
C0
C0
C2
42
3C
ENDCHAR

STARTCHAR eacute
ENCODING 233
SWIDTH 500 0
DWIDTH 10 0
BBX 8 12 1 0
BITMAP
0C
30
00
3C
42
C3
C3
FF
C0
C1
62
3C
ENDCHAR

STARTCHAR eogonek
ENCODING 234
SWIDTH 500 0
DWIDTH 10 0
BBX 8 11 1 -2
BITMAP
3C
42
C3
C3
FF
C0
C1
62
3C
18
0E
ENDCHAR

STARTCHAR edieresis
ENCODING 235
SWIDTH 500 0
DWIDTH 10 0
BBX 8 12 1 0
BITMAP
66
66
00
3C
42
C3
C3
FF
C0
C1
62
3C
ENDCHAR

STARTCHAR edotaccent
ENCODING 236
SWIDTH 500 0
DWIDTH 10 0
BBX 8 12 1 0
BITMAP
18
18
00
3C
42
C3
C3
FF
C0
C1
62
3C
ENDCHAR

STARTCHAR iacute
ENCODING 237
SWIDTH 315 0
DWIDTH 6 0
BBX 6 12 0 0
BITMAP
18
60
00
F0
30
30
30
30
30
30
30
FC
ENDCHAR

STARTCHAR icircumflex
ENCODING 238
SWIDTH 315 0
DWIDTH 6 0
BBX 6 13 0 0
BITMAP
20
70
88
00
F0
30
30
30
30
30
30
30
FC
ENDCHAR

STARTCHAR imacron
ENCODING 239
SWIDTH 315 0
DWIDTH 6 0
BBX 6 11 0 0
BITMAP
FC
00
F0
30
30
30
30
30
30
30
FC
ENDCHAR

STARTCHAR dcroat
ENCODING 240
SWIDTH 574 0
DWIDTH 11 0
BBX 10 14 1 0
BITMAP
0F00
0300
0300
0FC0
0300
3B00
4700
C300
C300
C300
C300
C300
4700
3BC0
ENDCHAR

STARTCHAR ncommaaccent
ENCODING 241
SWIDTH 611 0
DWIDTH 12 0
BBX 12 13 0 -4
BITMAP
F780
38C0
30C0
30C0
30C0
30C0
30C0
30C0
FDF0
0000
0600
0600
0C00
ENDCHAR

STARTCHAR omacron
ENCODING 242
SWIDTH 500 0
DWIDTH 10 0
BBX 8 11 1 0
BITMAP
7E
00
3C
66
C3
C3
C3
C3
C3
66
3C
ENDCHAR

STARTCHAR kcommaaccent
ENCODING 243
SWIDTH 593 0
DWIDTH 11 0
BBX 11 18 0 -4
BITMAP
F000
3000
3000
3000
3000
33C0
3100
3200
3400
3E00
3300
3180
30C0
FDE0
0000
0C00
0C00
1800
ENDCHAR

STARTCHAR ocircumflex
ENCODING 244
SWIDTH 500 0
DWIDTH 10 0
BBX 8 13 1 0
BITMAP
08
1C
22
00
3C
66
C3
C3
C3
C3
C3
66
3C
ENDCHAR

STARTCHAR otilde
ENCODING 245
SWIDTH 500 0
DWIDTH 10 0
BBX 8 12 1 0
BITMAP
1A
2C
00
3C
66
C3
C3
C3
C3
C3
66
3C
ENDCHAR

STARTCHAR odieresis
ENCODING 246
SWIDTH 500 0
DWIDTH 10 0
BBX 8 12 1 0
BITMAP
66
66
00
3C
66
C3
C3
C3
C3
C3
66
3C
ENDCHAR

STARTCHAR divide
ENCODING 247
SWIDTH 606 0
DWIDTH 12 0
BBX 10 9 1 2
BITMAP
0C00
0C00
0000
0000
FFC0
0000
0000
0C00
0C00
ENDCHAR

STARTCHAR oslash
ENCODING 248
SWIDTH 500 0
DWIDTH 10 0
BBX 8 9 1 0
BITMAP
3D
66
CB
CB
D3
D3
D3
66
BC
ENDCHAR

STARTCHAR uogonek
ENCODING 249
SWIDTH 611 0
DWIDTH 12 0
BBX 12 11 0 -2
BITMAP
F3C0
30C0
30C0
30C0
30C0
30C0
30C0
31C0
1EF0
00C0
0070
ENDCHAR

STARTCHAR uacute
ENCODING 250
SWIDTH 611 0
DWIDTH 12 0
BBX 12 12 0 0
BITMAP
0300
0C00
0000
F3C0
30C0
30C0
30C0
30C0
30C0
30C0
31C0
1EF0
ENDCHAR

STARTCHAR ucircumflex
ENCODING 251
SWIDTH 611 0
DWIDTH 12 0
BBX 12 13 0 0
BITMAP
0200
0700
0880
0000
F3C0
30C0
30C0
30C0
30C0
30C0
30C0
31C0
1EF0
ENDCHAR

STARTCHAR udieresis
ENCODING 252
SWIDTH 611 0
DWIDTH 12 0
BBX 12 12 0 0
BITMAP
1980
1980
0000
F3C0
30C0
30C0
30C0
30C0
30C0
30C0
31C0
1EF0
ENDCHAR

STARTCHAR utilde
ENCODING 253
SWIDTH 611 0
DWIDTH 12 0
BBX 12 12 0 0
BITMAP
0D00
1600
0000
F3C0
30C0
30C0
30C0
30C0
30C0
30C0
31C0
1EF0
ENDCHAR

STARTCHAR umacron
ENCODING 254
SWIDTH 611 0
DWIDTH 12 0
BBX 12 11 0 0
BITMAP
1F80
0000
F3C0
30C0
30C0
30C0
30C0
30C0
30C0
31C0
1EF0
ENDCHAR

STARTCHAR dotaccent
ENCODING 255
SWIDTH 333 0
DWIDTH 6 0
BBX 2 2 2 10
BITMAP
C0
C0
ENDCHAR
ENDFONT
